<?xml version="1.0" standalone="no"?>
<!DOCTYPE svg PUBLIC "-//W3C//DTD SVG 20010904//EN"
 "http://www.w3.org/TR/2001/REC-SVG-20010904/DTD/svg10.dtd">
<svg version="1.0" xmlns="http://www.w3.org/2000/svg"
 width="512.000000pt" height="512.000000pt" viewBox="0 0 512.000000 512.000000"
 preserveAspectRatio="xMidYMid meet">

<g transform="translate(0.000000,512.000000) scale(0.100000,-0.100000)"
fill="#000000" stroke="none">
<path d="M1228 5110 c-509 -93 -797 -625 -586 -1084 l32 -68 -23 -19 c-129
-105 -594 -526 -601 -545 -7 -18 -6 -35 4 -57 19 -43 1554 -1575 1581 -1577
58 -6 63 -1 341 315 186 212 283 315 296 315 11 0 326 -29 700 -65 375 -36
685 -65 690 -65 5 0 2 -13 -7 -30 -21 -41 -19 -132 4 -178 55 -107 174 -150
281 -101 62 28 691 656 716 714 34 81 16 180 -42 239 -91 91 -224 86 -319 -13
-25 -27 -48 -41 -65 -41 -31 -1 -1444 132 -1449 136 -1 2 101 121 228 266 300
342 330 400 318 615 -6 113 -30 190 -84 273 -53 82 -743 768 -823 819 -160
103 -367 114 -544 31 l-60 -28 -30 23 c-45 34 -171 92 -241 110 -71 19 -251
28 -317 15z m311 -196 c42 -14 91 -35 109 -46 33 -20 33 -21 15 -38 -54 -51
-853 -750 -857 -750 -2 0 -14 28 -26 63 -30 87 -38 250 -16 337 60 239 249
417 490 460 78 14 200 3 285 -26z m700 -60 c24 -7 62 -25 85 -38 23 -14 206
-190 408 -393 430 -431 423 -422 423 -588 0 -153 -9 -167 -342 -546 -479 -545
-1127 -1282 -1145 -1304 -17 -20 -32 -5 -713 675 -382 382 -695 698 -695 701
0 9 1609 1422 1654 1451 93 62 213 78 325 42z m1139 -2099 c378 -36 690 -67
695 -68 4 -1 -53 -62 -126 -135 l-134 -133 -694 65 c-382 37 -700 67 -708 69
-9 1 32 55 103 135 101 114 121 132 147 132 17 0 340 -29 717 -65z m1110 33
c30 -30 9 -56 -307 -372 -309 -309 -321 -319 -345 -308 -55 25 -41 42 291 374
175 175 325 318 333 318 9 0 21 -5 28 -12z"/>
<path d="M3204 1936 c-61 -27 -271 -372 -316 -520 -34 -111 -15 -218 56 -314
73 -100 209 -161 331 -148 211 22 367 228 325 430 -17 81 -103 250 -208 407
-72 108 -98 139 -123 148 -18 6 -32 11 -33 11 -1 -1 -15 -7 -32 -14z m121
-361 c98 -166 123 -239 105 -304 -20 -74 -84 -131 -162 -145 -119 -22 -246
102 -224 219 8 42 80 187 146 292 l45 72 19 -22 c10 -12 42 -62 71 -112z"/>
<path d="M4674 1680 c-57 -23 -262 -353 -315 -509 -64 -185 39 -393 226 -458
72 -25 185 -22 257 6 74 28 156 103 191 173 83 164 42 316 -170 633 -94 142
-95 142 -127 155 -31 12 -34 12 -62 0z m72 -287 c21 -32 64 -109 96 -170 48
-94 58 -121 58 -163 0 -113 -82 -193 -197 -193 -71 0 -137 40 -171 103 -33 63
-27 121 26 230 36 74 139 250 146 250 2 0 20 -26 42 -57z"/>
<path d="M3902 993 c-57 -11 -289 -394 -327 -538 -19 -75 -19 -115 1 -184 34
-123 140 -225 265 -257 262 -67 511 176 445 436 -36 138 -259 510 -323 536
-18 8 -34 13 -35 13 -2 -1 -13 -4 -26 -6z m113 -368 c58 -99 99 -186 110 -233
14 -67 -38 -162 -109 -199 -40 -21 -132 -21 -172 0 -72 37 -123 130 -110 200
8 41 84 195 146 294 l45 72 19 -22 c10 -12 42 -62 71 -112z"/>
</g>
</svg>
