<?xml version="1.0" standalone="no"?>
<!DOCTYPE svg PUBLIC "-//W3C//DTD SVG 20010904//EN"
 "http://www.w3.org/TR/2001/REC-SVG-20010904/DTD/svg10.dtd">
<svg version="1.0" xmlns="http://www.w3.org/2000/svg"
 width="512.000000pt" height="512.000000pt" viewBox="0 0 512.000000 512.000000"
 preserveAspectRatio="xMidYMid meet">

<g transform="translate(0.000000,512.000000) scale(0.100000,-0.100000)"
fill="#000000" stroke="none">
<path d="M1156 5059 c-21 -18 -38 -43 -41 -62 -5 -25 49 -189 255 -771 143
-407 259 -742 258 -746 -2 -3 -331 94 -733 216 -402 123 -744 226 -762 230
-62 12 -133 -46 -133 -110 0 -100 160 -461 278 -625 120 -169 329 -361 393
-361 40 0 69 32 69 75 0 30 -8 41 -83 103 -105 88 -209 199 -269 288 -25 38
-45 70 -45 71 1 1 213 -61 472 -138 259 -76 562 -166 675 -200 l205 -60 -3
-62 c-2 -34 3 -92 11 -129 l13 -67 -65 -7 c-172 -18 -425 17 -611 85 -71 26
-89 30 -112 20 -56 -23 -59 -98 -6 -133 35 -23 195 -74 305 -97 116 -25 369
-36 483 -21 l75 10 60 -60 c83 -83 216 -158 280 -158 21 0 25 -12 44 -136 17
-106 17 -116 2 -121 -85 -27 -115 -61 -113 -132 1 -25 22 -179 46 -341 40
-260 48 -297 67 -312 51 -42 119 -8 119 60 0 20 -18 158 -41 306 -22 147 -39
269 -37 271 5 4 491 76 493 73 1 -2 55 -356 119 -788 84 -561 116 -799 112
-834 -21 -182 -243 -276 -395 -166 -79 58 -86 78 -147 481 -51 343 -56 365
-80 387 -14 12 -36 22 -50 22 -26 0 -74 -40 -74 -62 1 -60 113 -734 130 -780
23 -63 81 -134 144 -178 259 -178 626 13 626 326 0 89 -237 1645 -257 1682
-21 41 -59 62 -113 62 -22 0 -40 3 -40 8 0 4 -11 77 -24 162 -19 118 -22 158
-13 167 9 8 46 8 152 -3 195 -20 185 -17 185 -63 0 -40 32 -90 70 -111 30 -16
1616 -182 1700 -177 145 7 266 93 333 235 29 61 32 76 32 162 0 86 -3 101 -31
161 -56 117 -144 193 -259 223 -33 9 -188 30 -344 46 -260 27 -287 29 -308 14
-46 -29 -49 -93 -7 -120 16 -11 111 -25 301 -45 153 -16 296 -34 318 -40 88
-24 155 -96 177 -189 31 -135 -67 -277 -204 -296 -46 -6 -1606 153 -1620 165
-4 3 5 115 19 249 l26 242 26 0 c14 0 174 -16 355 -35 359 -39 376 -39 394 14
11 32 -7 84 -32 94 -9 4 -187 25 -395 47 -403 43 -410 43 -459 -3 -12 -11 -27
-38 -33 -60 -10 -37 -11 -38 -47 -33 -20 3 -68 8 -107 11 -97 9 -103 12 -111
48 -16 74 -76 172 -153 247 l-76 75 5 85 c24 412 -112 811 -383 1121 -203 232
-473 396 -805 489 -136 38 -162 38 -206 -1z m262 -173 c36 -12 69 -29 74 -37
12 -21 498 -1442 498 -1457 0 -22 -23 -22 -100 1 l-74 23 -263 745 c-144 409
-263 748 -263 752 0 11 43 1 128 -27z m415 -214 c102 -73 259 -236 330 -343
159 -240 237 -497 237 -781 l0 -127 -32 7 c-18 4 -77 7 -130 7 l-98 0 -14 40
c-33 95 -372 1080 -407 1183 l-38 113 37 -21 c20 -12 72 -47 115 -78z m-813
-1172 c437 -133 796 -243 798 -245 6 -5 -82 -135 -91 -135 -24 0 -1473 433
-1483 443 -12 12 -74 169 -74 186 0 6 11 6 28 1 15 -4 385 -117 822 -250z
m1396 -250 c267 -131 308 -485 79 -672 -82 -67 -161 -92 -274 -86 -67 3 -99
10 -143 32 -255 122 -315 450 -118 646 86 87 176 122 303 116 74 -3 98 -9 153
-36z m561 -417 c37 -4 42 -8 38 -27 -2 -11 -7 -52 -11 -91 -3 -38 -8 -72 -9
-76 -4 -5 -234 17 -241 24 -2 2 2 19 10 38 8 19 17 57 21 84 4 28 10 54 13 59
4 7 76 3 179 -11z m-464 -560 c12 -82 14 -119 6 -123 -18 -12 -172 -31 -180
-23 -4 5 -13 54 -21 111 -14 101 -14 102 6 102 12 1 50 11 86 24 36 13 70 24
76 25 6 0 17 -46 27 -116z"/>
<path d="M2165 3129 c-33 -13 -92 -54 -113 -79 -48 -58 -71 -151 -53 -217 39
-145 181 -224 323 -181 51 15 126 82 149 133 22 48 25 151 5 199 -20 47 -73
104 -120 128 -47 24 -147 33 -191 17z m125 -154 c59 -31 69 -107 21 -156 -83
-82 -212 27 -147 125 29 45 77 56 126 31z"/>
</g>
</svg>
