<?xml version="1.0" standalone="no"?>
<!DOCTYPE svg PUBLIC "-//W3C//DTD SVG 20010904//EN"
 "http://www.w3.org/TR/2001/REC-SVG-20010904/DTD/svg10.dtd">
<svg version="1.0" xmlns="http://www.w3.org/2000/svg"
 width="512.000000pt" height="512.000000pt" viewBox="0 0 512.000000 512.000000"
 preserveAspectRatio="xMidYMid meet">

<g transform="translate(0.000000,512.000000) scale(0.100000,-0.100000)"
fill="#000000" stroke="none">
<path d="M2505 5106 c-17 -7 -38 -24 -46 -37 -21 -33 -89 -226 -89 -253 0 -35
36 -66 75 -66 41 0 63 25 90 104 11 31 22 56 25 56 3 0 50 -125 104 -277 54
-153 101 -284 103 -290 4 -10 -41 -13 -206 -13 -116 0 -211 1 -211 3 0 2 14
40 30 85 36 100 37 116 5 147 -28 29 -64 32 -94 8 -25 -21 -101 -224 -101
-271 0 -45 24 -89 60 -107 43 -22 577 -22 620 0 35 18 60 62 60 106 0 33 -243
728 -269 768 -17 26 -68 51 -103 51 -13 -1 -37 -7 -53 -14z"/>
<path d="M795 4401 c-11 -5 -33 -23 -50 -41 -54 -57 -49 -73 134 -460 90 -190
173 -355 184 -367 26 -30 79 -46 120 -38 46 10 423 384 439 436 13 44 -1 96
-35 127 -31 28 -697 342 -739 347 -18 3 -42 1 -53 -4z m340 -286 c66 -32 167
-80 224 -107 l105 -49 -149 -149 c-82 -82 -152 -146 -156 -142 -7 6 -155 317
-235 489 l-33 72 62 -29 c34 -15 116 -54 182 -85z"/>
<path d="M4250 4403 c-56 -19 -699 -330 -718 -346 -33 -30 -47 -86 -33 -129
17 -50 394 -423 438 -433 41 -8 94 8 120 38 25 28 340 690 349 734 15 78 -81
162 -156 136z m-54 -245 c-79 -173 -228 -484 -235 -490 -4 -4 -74 60 -156 142
l-149 149 84 40 c47 21 175 82 285 135 110 52 201 95 202 95 1 1 -13 -32 -31
-71z"/>
<path d="M2355 3979 c-457 -67 -869 -366 -1077 -784 -96 -191 -136 -353 -145
-575 -9 -234 23 -421 106 -613 73 -171 192 -352 239 -364 34 -8 74 15 86 50
11 32 0 58 -70 157 -133 190 -202 404 -211 660 -10 296 54 523 215 765 121
183 328 359 523 449 542 247 1186 93 1544 -369 141 -183 221 -362 259 -581 12
-66 21 -93 37 -106 52 -43 119 -4 119 68 -1 107 -66 319 -147 477 -171 334
-465 587 -823 706 -187 63 -461 88 -655 60z"/>
<path d="M424 2801 c-193 -69 -362 -134 -377 -143 -58 -39 -58 -155 1 -196 39
-27 734 -272 771 -272 44 0 88 25 106 60 22 43 22 577 0 620 -19 37 -63 60
-112 59 -21 -1 -195 -58 -389 -128z m366 -242 c0 -116 -4 -209 -9 -207 -4 2
-135 48 -290 103 -154 54 -281 102 -281 105 0 5 551 206 573 209 4 1 7 -94 7
-210z"/>
<path d="M4238 2914 c-55 -29 -58 -47 -58 -354 0 -309 3 -325 60 -355 16 -8
43 -15 60 -15 38 0 734 245 772 272 59 41 59 155 0 196 -40 28 -735 272 -774
272 -18 -1 -45 -7 -60 -16z m395 -250 c152 -54 277 -101 277 -104 0 -3 -125
-50 -277 -104 -153 -54 -284 -101 -290 -103 -10 -4 -13 41 -13 207 0 166 3
211 13 207 6 -2 137 -49 290 -103z"/>
<path d="M3885 2490 c-35 -13 -43 -32 -59 -132 -88 -546 -515 -974 -1061
-1064 -132 -21 -374 -14 -490 15 -175 43 -353 125 -473 217 -64 48 -121 43
-143 -13 -15 -40 4 -72 69 -119 303 -219 698 -309 1074 -245 182 32 376 105
522 199 329 211 564 551 640 927 24 119 24 171 1 194 -25 24 -54 32 -80 21z"/>
<path d="M1105 1616 c-16 -7 -37 -22 -46 -32 -9 -11 -90 -174 -180 -364 -180
-379 -187 -403 -139 -455 37 -40 78 -58 114 -51 44 9 706 324 733 348 12 12
27 36 33 55 23 67 11 85 -194 292 -220 222 -247 240 -321 207z m347 -457 c-6
-7 -317 -155 -489 -235 l-72 -33 29 62 c15 34 54 116 85 182 32 66 80 167 107
224 l49 105 149 -149 c82 -82 146 -152 142 -156z"/>
<path d="M3915 1616 c-16 -8 -116 -101 -221 -207 -205 -207 -217 -225 -194
-292 6 -19 21 -43 33 -54 31 -28 697 -343 738 -349 67 -10 145 68 135 135 -6
36 -319 704 -345 735 -18 21 -72 46 -98 46 -10 -1 -31 -7 -48 -14z m150 -376
c54 -113 113 -237 131 -277 l33 -72 -92 43 c-189 89 -443 209 -461 218 -16 9
-1 27 130 159 82 82 151 145 155 141 4 -4 51 -99 104 -212z"/>
<path d="M2248 924 c-34 -18 -58 -62 -58 -105 0 -37 245 -732 272 -771 41 -59
155 -59 196 0 27 39 272 734 272 771 0 44 -25 88 -60 106 -42 22 -581 22 -622
-1z m519 -146 c-2 -7 -49 -138 -103 -290 -54 -153 -101 -278 -104 -278 -3 0
-50 125 -104 278 -54 152 -101 283 -103 290 -4 9 41 12 207 12 166 0 211 -3
207 -12z"/>
</g>
</svg>
