<?xml version="1.0" standalone="no"?>
<!DOCTYPE svg PUBLIC "-//W3C//DTD SVG 20010904//EN"
 "http://www.w3.org/TR/2001/REC-SVG-20010904/DTD/svg10.dtd">
<svg version="1.0" xmlns="http://www.w3.org/2000/svg"
 width="512.000000pt" height="512.000000pt" viewBox="0 0 512.000000 512.000000"
 preserveAspectRatio="xMidYMid meet">

<g transform="translate(0.000000,512.000000) scale(0.100000,-0.100000)"
fill="#000000" stroke="none">
<path d="M2907 4950 c-71 -13 -77 -46 -42 -195 42 -176 -17 -377 -150 -510
-195 -195 -515 -217 -734 -51 -19 14 -48 26 -63 26 -39 0 -78 -40 -78 -79 0
-41 -27 -118 -56 -161 l-24 -35 0 68 0 67 -80 0 -80 0 0 -39 0 -39 -80 0 -80
0 0 39 0 39 -80 0 -79 0 -3 -67 -3 -67 -31 59 c-18 33 -35 74 -38 91 -9 43
-40 68 -82 68 -29 0 -45 -10 -95 -59 -361 -354 -647 -853 -774 -1350 -127
-499 -125 -964 6 -1344 44 -125 148 -332 222 -440 l64 -94 -186 -174 c-102
-95 -190 -184 -195 -197 -5 -13 -6 -34 -3 -47 3 -13 69 -86 145 -162 119 -118
143 -137 170 -137 38 0 41 2 245 221 l155 166 93 -64 c108 -74 315 -178 440
-222 115 -39 290 -77 424 -92 129 -14 418 -7 457 12 39 17 50 53 38 118 -23
123 -6 232 55 358 127 258 456 373 723 252 88 -40 116 -38 161 9 53 57 99 88
159 107 88 29 105 80 51 153 -93 127 4 286 158 257 48 -9 109 -71 119 -120 12
-66 -3 -106 -62 -160 -47 -44 -54 -55 -54 -88 0 -33 6 -41 60 -84 33 -25 60
-49 60 -53 0 -4 17 -25 38 -48 59 -64 80 -60 194 41 449 401 771 960 903 1570
41 193 36 213 -66 243 -80 24 -149 55 -149 68 1 6 7 22 15 36 8 14 14 36 15
49 0 15 24 48 70 95 39 40 70 77 70 82 0 12 -93 104 -105 104 -5 0 -22 -12
-38 -27 -28 -27 -29 -27 -39 -8 -15 26 -67 78 -93 93 -19 10 -19 11 8 39 15
16 27 34 27 39 0 13 -93 104 -106 104 -5 0 -30 -20 -54 -45 -24 -24 -45 -43
-47 -41 -9 8 23 129 48 185 40 88 100 163 173 216 116 84 116 84 116 119 0 42
-16 61 -71 84 -110 47 -143 171 -68 257 55 62 145 71 218 21 47 -33 85 -33
116 -1 l25 24 0 341 0 341 -25 24 -24 25 -983 -1 c-541 -1 -1000 -5 -1021 -9z
m1893 -352 l0 -203 -83 0 c-74 0 -88 -3 -145 -34 -71 -38 -101 -70 -139 -145
-52 -103 -40 -227 33 -329 l35 -48 -65 -69 c-116 -123 -183 -278 -193 -446 -6
-88 -6 -90 -39 -112 -31 -20 -94 -100 -94 -120 0 -5 -7 -15 -15 -22 -13 -11
-15 -3 -15 59 l0 71 -80 0 -80 0 0 -95 0 -94 -32 -17 c-18 -9 -54 -31 -79 -49
l-47 -33 -48 49 c-26 27 -53 49 -58 49 -14 0 -106 -92 -106 -105 0 -6 22 -33
49 -59 l49 -48 -33 -47 c-18 -25 -40 -61 -49 -78 l-17 -33 -94 0 -95 0 0 -80
0 -80 68 0 67 0 1 -69 c3 -186 168 -351 354 -355 l70 -1 0 -67 0 -68 80 0 80
0 0 95 0 94 33 17 c17 9 53 31 78 49 l47 33 48 -49 c26 -27 53 -49 58 -49 11
0 106 96 106 108 0 4 -22 30 -49 56 l-49 48 33 47 c18 25 40 61 49 79 l17 32
94 0 95 0 0 76 c0 73 1 75 22 68 49 -15 88 -35 88 -44 0 -25 -52 -228 -85
-328 -138 -429 -373 -810 -694 -1127 -85 -84 -92 -88 -108 -73 -15 16 -14 21
18 80 30 56 33 72 34 143 0 66 -5 90 -26 136 -94 201 -358 249 -514 94 -62
-62 -90 -135 -90 -230 1 -44 6 -90 13 -102 11 -20 9 -24 -18 -38 -16 -8 -45
-29 -65 -46 l-35 -31 -62 21 c-133 43 -244 51 -370 27 -343 -66 -588 -364
-588 -717 l0 -69 -117 0 c-356 0 -679 95 -960 283 -78 51 -90 63 -80 76 11 14
2801 3003 2939 3148 67 71 75 107 33 148 -41 42 -77 34 -148 -33 -34 -32 -548
-513 -1142 -1067 -594 -555 -1183 -1106 -1310 -1224 -476 -446 -680 -636 -696
-648 -14 -11 -24 -2 -72 71 -205 309 -298 652 -283 1046 15 398 106 760 281
1115 122 250 251 443 420 632 l67 74 28 -43 c15 -24 43 -58 63 -77 32 -30 34
-36 26 -64 -13 -46 -11 -107 6 -162 8 -27 12 -51 9 -54 -2 -3 -26 16 -52 42
l-47 47 -57 -57 -58 -57 65 -66 66 -66 -16 -65 c-8 -35 -15 -76 -15 -91 l0
-28 -80 0 -80 0 0 -80 0 -80 80 0 80 0 0 -27 c0 -16 7 -57 15 -92 l16 -65 -66
-66 -65 -66 58 -57 57 -57 47 47 47 46 38 -34 c160 -145 366 -145 526 0 l38
34 47 -46 47 -47 57 57 58 57 -65 66 -66 66 16 65 c8 35 15 76 15 92 l0 27 80
0 80 0 0 80 0 80 -80 0 -80 0 0 28 c0 15 -7 56 -15 91 l-16 65 66 66 65 66
-58 57 -57 57 -47 -47 c-26 -26 -50 -45 -52 -42 -3 3 1 27 9 54 16 51 18 123
6 165 -7 21 0 33 40 76 26 28 59 75 74 105 15 30 29 56 31 58 2 2 34 -9 71
-24 324 -129 683 -17 876 276 93 140 135 336 108 502 l-8 47 889 0 888 0 0
-202z m-3191 -781 c38 -23 70 -85 71 -136 0 -28 -3 -32 -17 -26 -10 4 -46 12
-80 18 -61 11 -155 2 -205 -18 -15 -6 -18 -1 -18 30 0 44 34 109 69 132 55 36
120 36 180 0z m-169 -697 c0 -278 -3 -380 -11 -380 -7 0 -33 21 -59 48 -145
145 -145 519 0 665 26 26 52 47 59 47 8 0 11 -102 11 -380z m230 333 c145
-146 145 -520 0 -665 -26 -27 -52 -48 -59 -48 -8 0 -11 102 -11 380 0 278 3
380 11 380 7 0 33 -21 59 -47z m2793 -347 c95 -39 126 -168 61 -246 -14 -16
-30 -30 -35 -30 -5 0 -18 17 -28 39 -26 50 -102 126 -152 152 -45 23 -47 28
-16 57 44 42 111 53 170 28z m-260 -213 c5 -3 -111 -126 -259 -274 -147 -147
-271 -266 -275 -263 -17 10 -19 82 -4 139 23 86 69 159 155 245 84 84 158 132
240 154 50 14 119 14 143 -1z m141 -171 c9 -49 -17 -143 -57 -212 -41 -71
-166 -196 -237 -237 -91 -53 -206 -74 -254 -46 -4 3 112 126 260 274 147 147
271 266 275 263 4 -2 10 -21 13 -42z m251 -62 l30 -20 -63 0 c-64 0 -75 11
-28 30 29 12 27 12 61 -10z m-2441 -512 c-28 -29 -408 -435 -844 -903 -436
-467 -801 -859 -812 -870 -18 -19 -19 -19 -80 43 l-63 62 70 64 c39 35 453
422 920 860 468 437 852 795 855 796 2 0 -19 -24 -46 -52z"/>
</g>
</svg>
